<?xml version="1.0" encoding="UTF-8"?>
<svg width="558px" height="795px" viewBox="0 0 558 795" version="1.1" xmlns="http://www.w3.org/2000/svg" xmlns:xlink="http://www.w3.org/1999/xlink">
    <!-- Generator: Sketch 52.6 (67491) - http://www.bohemiancoding.com/sketch -->
    <title>logo</title>
    <desc>Created with Sketch.</desc>
    <defs>
        <linearGradient x1="97.0193509%" y1="2.45560144%" x2="6.26237783%" y2="96.7776576%" id="linearGradient-1">
            <stop stop-color="#80C3F3" offset="0%"></stop>
            <stop stop-color="#114D94" offset="100%"></stop>
        </linearGradient>
        <linearGradient x1="1.60925033%" y1="2.29065534%" x2="100%" y2="100%" id="linearGradient-2">
            <stop stop-color="#061520" offset="0%"></stop>
            <stop stop-color="#06438B" offset="100%"></stop>
        </linearGradient>
        <filter x="-31.6%" y="-161.4%" width="163.2%" height="423.1%" filterUnits="objectBoundingBox" id="filter-3">
            <feGaussianBlur stdDeviation="40" in="SourceGraphic"></feGaussianBlur>
        </filter>
    </defs>
    <g id="Page-1" stroke="none" stroke-width="1" fill="none" fill-rule="evenodd">
        <g id="logo" transform="translate(-337.000000, -195.000000)">
            <path d="M357.268944,403.766978 L805.965712,276.382726 C811.278603,274.874405 816.808288,277.958619 818.316609,283.27151 C818.764949,284.850737 818.817603,286.516055 818.469923,288.120451 L727.708088,706.948503 C726.711261,711.548446 722.641645,714.830618 717.934933,714.830618 L360,714.830618 C354.477153,714.830618 350,710.353466 350,704.830618 L350,413.386818 C350,408.915787 352.967883,404.988042 357.268944,403.766978 Z" id="secondary-background" fill="url(#linearGradient-1)" transform="translate(584.348384, 495.415309) rotate(-28.000000) translate(-584.348384, -495.415309) "></path>
            <path d="M391.268944,497.766978 L839.965712,370.382726 C845.278603,368.874405 850.808288,371.958619 852.316609,377.27151 C852.764949,378.850737 852.817603,380.516055 852.469923,382.120451 L761.708088,800.948503 C760.711261,805.548446 756.641645,808.830618 751.934933,808.830618 L394,808.830618 C388.477153,808.830618 384,804.353466 384,798.830618 L384,507.386818 C384,502.915787 386.967883,498.988042 391.268944,497.766978 Z" id="primary-background" fill="url(#linearGradient-2)" transform="translate(618.348384, 589.415309) rotate(-77.000000) translate(-618.348384, -589.415309) "></path>
            <path d="M441.579922,855.781854 L792.467527,820.270055 C797.962306,819.713952 802.867515,823.717541 803.423617,829.212319 C803.54614,830.422951 803.446681,831.64578 803.130131,832.820701 L788.581044,886.821541 C787.404934,891.186827 783.4463,894.220072 778.925353,894.220072 L447.167413,894.220072 C442.570821,894.220072 438.566229,891.086534 437.460861,886.624828 L432.880283,868.135787 C431.552173,862.775006 434.821299,857.352589 440.182079,856.024479 C440.641695,855.910612 441.108818,855.829532 441.579922,855.781854 Z" id="shadow" fill="#05172D" filter="url(#filter-3)" transform="translate(618.178904, 857.110036) scale(1, -1) translate(-618.178904, -857.110036) "></path>
        </g>
    </g>
</svg>